<?xml version="1.0" encoding="UTF-8"?>
<svg id="Layer_1" xmlns="http://www.w3.org/2000/svg" version="1.1" viewBox="0 0 16 16">
  <!-- Generator: Adobe Illustrator 30.0.0, SVG Export Plug-In . SVG Version: 2.1.1 Build 123)  -->
  <defs>
    <style>
      .st0 {
        fill: none;
      }

      .st1 {
        fill: #300;
        fill-rule: evenodd;
      }
    </style>
  </defs>
  <rect class="st0" width="16" height="16"/>
  <path class="st1" d="M8.73,12.38c1.64-.61,2.96-1.85,3.67-3.45-.83.14-1.73.25-2.7.34-.21,1.22-.53,2.25-.97,3.1M10.76,11.18c-.32.02-.64.02-.96,0h-.02c-.36-.38-.65-.83-.84-1.32-.25-.59-.46-1.29-.63-2.08,1.31.06,2.61.06,3.92,0-.17.8-.38,1.49-.63,2.08-.19.49-.48.93-.84,1.31h0ZM2.51,11.91c1.11-.1,2.09-.24,2.95-.43.16-.85.16-1.73,0-2.58-.87-.18-1.85-.32-2.95-.43.11,1.14.11,2.3,0,3.44M10.15,6.18c.13,1.21.13,2.43,0,3.64-1.43.08-2.87.08-4.3,0-.13-1.21-.13-2.43,0-3.64,1.43-.08,2.87-.08,4.3,0M9.29,6.52c.97.09,1.86.2,2.69.34-.71-1.59-2.03-2.83-3.67-3.44.43.84.76,1.87.98,3.1M6.23,7.79v.02c.28.25.56.68.85,1.31.25.59.46,1.29.63,2.08-1.31-.06-2.61-.06-3.92,0,.17-.8.38-1.49.63-2.08.19-.49.48-.94.85-1.32.32-.02.64-.02.96,0M11.33,4.01c-3.31,1.01-5.99,3.07-7.43,5.71,1.81-.26,3.64-.45,5.47-.56.42-2.03,1.07-3.74,1.96-5.15M4.58,8.47c-1.11.04-2.09.09-2.95.16-.16.31-.16.63,0,.94.87.07,1.85.12,2.95.16-.11-.42-.11-.84,0-1.25M7.43,4.35c-.97-.08-1.86-.19-2.69-.34.71,1.59,2.03,2.83,3.67,3.44-.43-.85-.76-1.88-.98-3.1"/>
</svg>