<?xml version="1.0" encoding="UTF-8"?>
<svg id="Layer_1" xmlns="http://www.w3.org/2000/svg" version="1.1" viewBox="0 0 394 80">
  <!-- Generator: Adobe Illustrator 30.0.0, SVG Export Plug-In . SVG Version: 2.1.1 Build 123)  -->
  <defs>
    <style>
      .st0 {
        fill: #300;
      }
    </style>
  </defs>
  <path class="st0" d="M154.48,90.32h-68.5s30.71,16.12,30.71,16.12l-3.51-28.82V11.02s13.6,0,13.6,0v66.6s27.7,0,27.7,0v12.7ZM120.23,11.22h12.7s0,55,0,55h20.4s0-44.3,0-44.3h12.6s0,44.3,0,44.3h21s0-55,0-55h12.6s0,68.5,0,68.5h-79.3s0-68.7,0-68.7v.2ZM110.15.27l-13.61-8.99,59.61,88.39h17.9l-32-39.7L174.05.37h-17.9l-23,28.6L110.15.37v-.1Z"/>
</svg>